<?xml version="1.0" encoding="UTF-8"?>
<svg id="Layer_2" data-name="Layer 2" xmlns="http://www.w3.org/2000/svg" viewBox="0 0 106.75 110.91">
  <defs>
    <style>
      .cls-1 {
        fill:#FFFFFF;
        stroke-width: 0px;
      }
    </style>
  </defs>
  <g id="Layer_1-2" data-name="Layer 1">
    <path class="cls-1" d="M96.23,55.46l10.46-18.12c.08-.14.08-.31,0-.44l-10.59-18.34c-.08-.14-.23-.22-.38-.22h-20.92L64.35.22c-.08-.14-.23-.22-.38-.22h-21.18c-.16,0-.31.08-.38.22l-10.46,18.12H11.03c-.16,0-.31.08-.38.22L.06,36.9c-.08.14-.08.31,0,.44l10.46,18.12L.06,73.57c-.08.14-.08.31,0,.44l10.59,18.33c.08.14.23.22.38.22h20.91l10.46,18.12c.08.14.23.22.38.22h21.18c.16,0,.31-.08.38-.22l10.45-18.12h20.92c.16,0,.31-.08.38-.22l10.59-18.33c.08-.14.08-.31,0-.44l-10.46-18.12ZM95.72,91.24l-10.2-17.66c-.08-.14-.23-.22-.38-.22h-21.17c-.16,0-.31.08-.38.22-.08.14-.08.31,0,.44l10.45,18.11-10.32,17.89h-20.15l10.2-17.67c.08-.14.08-.31,0-.44l-10.59-18.33c-.16-.28-.61-.28-.77,0l-10.46,18.11H11.29L1.22,74.24h20.4c.16,0,.31-.08.38-.22l10.59-18.34c.08-.14.08-.31,0-.44-.08-.14-.23-.22-.38-.22H11.29L.96,37.12l10.07-17.45,10.19,17.67c.08.14.23.22.38.22h21.18c.16,0,.31-.08.38-.22.08-.14.08-.31,0-.44l-10.46-18.12L43.05.89h20.15l-10.2,17.67c-.08.14-.08.31,0,.44l10.59,18.34c.08.14.23.22.38.22s.31-.08.38-.22l10.45-18.12h20.66l10.07,17.45h-20.41c-.16,0-.31.08-.38.22l-10.59,18.34c-.08.14-.08.31,0,.44.08.14.23.22.38.22h20.92l10.33,17.89-10.07,17.44Z"/>
  </g>
</svg>